<?xml version="1.0" encoding="UTF-8" standalone="no"?>
<!-- Created with Inkscape (http://www.inkscape.org/) -->

<svg
   xmlns:dc="http://purl.org/dc/elements/1.1/"
   xmlns:cc="http://creativecommons.org/ns#"
   xmlns:rdf="http://www.w3.org/1999/02/22-rdf-syntax-ns#"
   xmlns:svg="http://www.w3.org/2000/svg"
   xmlns="http://www.w3.org/2000/svg"
   xmlns:sodipodi="http://sodipodi.sourceforge.net/DTD/sodipodi-0.dtd"
   xmlns:inkscape="http://www.inkscape.org/namespaces/inkscape"
   width="32"
   height="32"
   viewBox="0 0 8.4666663 8.466667"
   version="1.1"
   id="svg938"
   inkscape:version="0.92.4 (5da689c313, 2019-01-14)"
   sodipodi:docname="favicon.svg">
  <defs
     id="defs932" />
  <sodipodi:namedview
     id="base"
     pagecolor="#ffffff"
     bordercolor="#666666"
     borderopacity="1.0"
     inkscape:pageopacity="0"
     inkscape:pageshadow="2"
     inkscape:zoom="28.963094"
     inkscape:cx="14.310423"
     inkscape:cy="18.208078"
     inkscape:document-units="mm"
     inkscape:current-layer="g1495"
     showgrid="false"
     units="px"
     fit-margin-top="0"
     fit-margin-left="0"
     fit-margin-right="0"
     fit-margin-bottom="0"
     inkscape:window-width="2560"
     inkscape:window-height="1361"
     inkscape:window-x="-9"
     inkscape:window-y="-9"
     inkscape:window-maximized="1"
     inkscape:pagecheckerboard="false"
     inkscape:snap-bbox="false"
     inkscape:bbox-paths="true"
     inkscape:snap-page="true" />
  <metadata
     id="metadata935">
    <rdf:RDF>
      <cc:Work
         rdf:about="">
        <dc:format>image/svg+xml</dc:format>
        <dc:type
           rdf:resource="http://purl.org/dc/dcmitype/StillImage" />
        <dc:title></dc:title>
      </cc:Work>
    </rdf:RDF>
  </metadata>
  <g
     inkscape:groupmode="layer"
     id="layer3"
     inkscape:label="Layer 2"
     transform="translate(0,0.33866667)">
    <g
       style="display:inline"
       id="g1495"
       transform="translate(-161.63182,-253.73098)">
      <path
         style="fill:#ffffff;fill-opacity:0.06796115;stroke-width:0.08826151"
         d="m 161.64474,257.63857 v -4.24626 h 4.22687 4.22688 v 4.24626 4.24625 h -4.22688 -4.22687 z"
         id="path1511"
         inkscape:connector-curvature="0" />
      <path
         style="fill:#fad888;stroke-width:0.08826151"
         d="m 161.64474,257.63857 v -4.24626 h 1.18881 1.18881 v 4.24626 4.24625 h -1.18881 -1.18881 z m 2.90598,0 v -4.24626 h 1.1888 1.18881 v 4.24626 4.24625 h -1.18881 -1.1888 z m 2.90597,0 v -4.24626 h 1.3209 1.3209 v 4.24626 4.24625 h -1.3209 -1.3209 z"
         id="path1509"
         inkscape:connector-curvature="0" />
      <path
         style="fill:#c0dab2;stroke-width:0.08826151"
         d="m 161.64474,261.08865 v -0.79618 h 1.18881 1.18881 v 0.79618 0.79617 h -1.18881 -1.18881 z m 2.90598,0 v -0.79618 h 1.1888 1.18881 v 0.79618 0.79617 h -1.18881 -1.1888 z m 2.90597,-1.19426 v -1.99043 h 1.3209 1.3209 v 1.99043 1.99043 h -1.3209 -1.3209 z m -2.90597,-4.24625 v -2.25583 h 1.1888 1.18881 v 2.25583 2.25582 h -1.18881 -1.1888 z m -2.90598,-0.53079 v -1.72504 h 1.18881 1.18881 v 1.72504 1.72504 h -1.18881 -1.18881 z m 5.81195,0 v -1.72504 h 1.3209 1.3209 v 1.72504 1.72504 h -1.3209 -1.3209 z"
         id="path1507"
         inkscape:connector-curvature="0" />
      <path
         style="fill:#f9c687;stroke-width:0.08826151"
         d="m 161.64474,261.08865 v -0.79618 h 1.18881 1.18881 v 0.79618 0.79617 h -1.18881 -1.18881 z m 2.90598,0 v -0.79618 h 1.1888 1.18881 v 0.79618 0.79617 h -1.18881 -1.1888 z m 2.90597,-1.19426 v -1.99043 h 1.3209 1.3209 v 1.99043 1.99043 h -1.3209 -1.3209 z m -2.90597,-4.77704 v -1.72504 h 1.1888 1.18881 v 1.72504 1.72504 h -1.18881 -1.1888 z m 2.90597,-0.66347 v -1.06157 h 1.3209 1.3209 v 1.06157 1.06156 h -1.3209 -1.3209 z m -5.81195,-0.53079 v -0.53078 h 1.18881 1.18881 v 0.53078 0.53079 h -1.18881 -1.18881 z"
         id="path1505"
         inkscape:connector-curvature="0" />
      <path
         style="fill:#f6a477;stroke-width:0.08826151"
         d="m 161.64474,261.61943 v -0.26539 h 1.18881 1.18881 v 0.26539 0.26539 h -1.18881 -1.18881 z m 2.90598,-0.53078 v -0.79618 h 1.1888 1.18881 v 0.79618 0.79617 h -1.18881 -1.1888 z m 2.90597,-1.19426 v -1.99043 h 1.3209 1.3209 v 1.99043 1.99043 h -1.3209 -1.3209 z m -2.90597,-4.77704 v -1.72504 h 1.1888 1.18881 v 1.72504 1.72504 h -1.18881 -1.1888 z m 2.90597,-0.66347 v -1.06157 h 1.3209 1.3209 v 1.06157 1.06156 h -1.3209 -1.3209 z m -5.81195,-0.53079 v -0.53078 h 1.18881 1.18881 v 0.53078 0.53079 h -1.18881 -1.18881 z"
         id="path1503"
         inkscape:connector-curvature="0" />
      <path
         style="fill:#de8467;stroke-width:0.08826151"
         d="m 164.55072,261.08865 v -0.79618 h 1.1888 1.18881 v 0.79618 0.79617 h -1.18881 -1.1888 z m 2.90597,0 v -0.79618 h 1.3209 1.3209 v 0.79618 0.79617 h -1.3209 -1.3209 z m -2.90597,-5.9713 v -1.72504 h 1.1888 1.18881 v 1.72504 1.72504 h -1.18881 -1.1888 z m 2.90597,-0.66347 v -1.06157 h 1.3209 1.3209 v 1.06157 1.06156 h -1.3209 -1.3209 z m -5.81195,-0.53079 v -0.53078 h 1.18881 1.18881 v 0.53078 0.53079 h -1.18881 -1.18881 z"
         id="path1501"
         inkscape:connector-curvature="0" />
      <path
         style="fill:#7dbb88;stroke-width:0.08826151"
         d="m 164.55072,255.11735 v -1.72504 h 1.1888 1.18881 v 1.72504 1.72504 h -1.18881 -1.1888 z m 2.90597,-0.66347 v -1.06157 h 1.3209 1.3209 v 1.06157 1.06156 h -1.3209 -1.3209 z m -5.81195,-0.53079 v -0.53078 h 1.18881 1.18881 v 0.53078 0.53079 h -1.18881 -1.18881 z"
         id="path1499"
         inkscape:connector-curvature="0" />
      <path
         style="fill:#55a062;stroke-width:0.08826151"
         d="m 167.45669,254.18849 v -0.79618 h 1.3209 1.3209 v 0.79618 0.79617 h -1.3209 -1.3209 z m -2.90597,-0.2654 v -0.53078 h 1.1888 1.18881 v 0.53078 0.53079 h -1.18881 -1.1888 z m -2.90598,-0.26539 v -0.26539 h 1.18881 1.18881 v 0.26539 0.26539 h -1.18881 -1.18881 z"
         id="path1497"
         inkscape:connector-curvature="0" />
    </g>
  </g>
</svg>
